Coordinates
version=1
nRows=27
nColumns=19
inDegrees=yes

Units are S.I. units (second, meters, Newtons, ...)
If the header above contains a line with 'inDegrees', this indicates whether rotational values are in degrees (yes) or radians (no).

endheader
time	pelvis_tilt	pelvis_list	pelvis_rotation	pelvis_tx	pelvis_ty	pelvis_tz	hip_flexion_r	hip_adduction_r	hip_rotation_r	knee_angle_r	knee_angle_r_beta	ankle_angle_r	hip_flexion_l	hip_adduction_l	hip_rotation_l	knee_angle_l	knee_angle_l_beta	ankle_angle_l
     11.68000000	      4.29383811	     -8.52262960	     -4.82157777	      2.26542780	      0.97425854	      1.06434295	     15.28786788	     10.40881452	    -15.08996755	     16.79899422	      0.29319776	      1.67161038	    -18.15632691	    -15.44558749	    -17.55126462	     70.45839540	      1.22973099	     -4.07994084
     11.68666667	      4.66686715	     -8.88991660	     -4.88543911	      2.26451268	      0.97012925	      1.06472737	     14.48531664	     10.68024549	    -15.42957927	     18.12913869	      0.31641316	      2.12248534	    -16.83557275	    -15.78555624	    -16.12489012	     74.46989544	      1.29974487	     -3.47455208
     11.69333333	      4.64059434	     -9.03272232	     -4.95646081	      2.26321975	      0.96556464	      1.06478324	     14.30548210	     10.65320379	    -15.70413632	     19.98620572	      0.34882509	      3.01235932	    -14.85615003	    -15.83007710	    -14.51943277	     78.45026304	      1.36921539	     -2.93518421
     11.70000000	      4.61059205	     -9.09174773	     -5.05629422	      2.26164719	      0.96101864	      1.06448808	     14.23267503	     10.48057096	    -15.81698715	     22.20929511	      0.38762532	      4.24386740	    -12.76803594	    -15.71200782	    -12.98030492	     82.27376819	      1.43594814	     -2.54403821
     11.70666667	      4.61835760	     -9.01573029	     -5.09256850	      2.25975135	      0.95660462	      1.06389753	     14.18029148	     10.11452422	    -15.84084106	     24.63923222	      0.43003573	      5.88759009	    -10.57252335	    -15.41977264	    -11.41798932	     85.93070300	      1.49977370	     -2.26742415
     11.71333333	      4.54182867	     -8.79894366	     -5.15962440	      2.25756856	      0.95231157	      1.06306499	     14.28102712	      9.57543547	    -15.69045098	     27.27758098	      0.47608360	      7.77355472	     -8.19479098	    -14.98319942	     -9.99468788	     89.37057711	      1.55981082	     -2.00823142
     11.72000000	      4.52806271	     -8.43378832	     -5.18577899	      2.25513403	      0.94837500	      1.06202326	     14.29144898	      8.86858625	    -15.38291610	     29.91777439	      0.52216367	      9.90528734	     -5.77501087	    -14.38677653	     -8.65397733	     92.56299651	      1.61552905	     -1.82404118
     11.72666667	      4.48014464	     -7.95571821	     -5.22344397	      2.25249486	      0.94478209	      1.06091006	     14.27420510	      8.06390843	    -14.91069163	     32.45050301	      0.56636812	     12.09823983	     -3.24831703	    -13.70949137	     -7.47581695	     95.47654036	      1.66637999	     -1.63824920
     11.73333333	      4.63374934	     -7.35309698	     -5.20720759	      2.24966701	      0.94192562	      1.05972934	     13.90599482	      7.12271407	    -14.36428742	     34.73180781	      0.60618440	     14.30229137	     -0.86954861	    -12.92969157	     -6.43944205	     98.04950915	      1.71128676	     -1.52428535
     11.74000000	      4.59631445	     -6.71202790	     -5.19927458	      2.24691563	      0.93939380	      1.05861021	     13.57662526	      6.19621441	    -13.70792582	     36.71524511	      0.64080191	     16.40043233	      1.73852341	    -12.20548505	     -5.57229733	    100.29738938	      1.75051968	     -1.27262481
     11.74666667	      4.99860393	     -6.03691236	     -5.08870132	      2.24415534	      0.93803328	      1.05754109	     12.52740668	      5.20053812	    -13.14132403	     38.23135306	      0.66726299	     18.29952903	      3.86990275	    -11.46549468	     -4.83907588	    102.09785332	      1.78194370	     -1.07282751
     11.75333333	      5.29703015	     -5.31010593	     -4.95469316	      2.24160386	      0.93727741	      1.05663021	     11.34112488	      4.18278765	    -12.62495581	     39.29521536	      0.68583089	     19.93493412	      6.10964351	    -10.75388196	     -4.23659609	    103.51733473	      1.80671832	     -0.81931583
     11.76000000	      5.43278163	     -4.60971284	     -4.83796470	      2.23926737	      0.93705925	      1.05604688	     10.08902386	      3.24789030	    -12.17834638	     39.91712094	      0.69668519	     21.24298030	      8.48722714	    -10.18512481	     -3.79893063	    104.54911064	      1.82472621	     -0.61314514
     11.76666667	      5.78194741	     -4.12421172	     -4.81770423	      2.23733491	      0.93778283	      1.05585005	      8.28198888	      2.63797596	    -11.58940116	     39.94286825	      0.69713456	     22.11991762	     10.45144836	     -9.99170144	     -3.64217608	    105.14003849	      1.83503985	     -0.34929204
     11.77333333	      6.17563394	     -3.21866417	     -4.43748289	      2.23585132	      0.93925685	      1.05546316	      6.25078442	      1.43204306	    -11.71903928	     39.70790355	      0.69303366	     22.75063734	     12.40033132	     -9.19514378	     -3.29522204	    105.26427228	      1.83720814	     -0.13897292
     11.78000000	      6.67776510	     -2.58485680	     -4.18568884	      2.23493341	      0.94154082	      1.05558455	      3.78491251	      0.66171411	    -11.70352474	     38.88837721	      0.67873022	     22.81666927	     13.97624877	     -8.86984783	     -3.23360295	    104.96302171	      1.83195032	      0.12320201
     11.78666667	      6.50686543	     -1.96126209	     -4.24167982	      2.23453535	      0.94365025	      1.05628495	      1.96861697	      0.02422682	    -11.44553650	     37.90167140	      0.66150896	     22.52903586	     16.07764710	     -8.78934289	     -3.60814734	    104.33970731	      1.82107143	      0.38510970
     11.79333333	      7.35621778	     -1.33390745	     -3.75945873	      2.23469901	      0.94745788	      1.05660775	     -1.32587059	     -0.62286885	    -11.77850037	     36.26101930	      0.63287418	     21.66246494	     16.93570396	     -8.42220381	     -3.58961442	    103.22477099	      1.80161212	      0.63121182
     11.80000000	      7.66081745	     -0.72841860	     -3.67783965	      2.23540621	      0.95116695	      1.05752095	     -4.04722518	     -1.14632157	    -11.73600308	     34.51939043	      0.60247702	     20.36686003	     18.09633435	     -8.34184435	     -4.12527268	    101.79120095	      1.77659161	      0.89893359
     11.80666667	      7.82225843	     -0.10267591	     -3.64820383	      2.23660636	      0.95517507	      1.05856660	     -6.67534457	     -1.65703774	    -11.69908100	     32.60662518	      0.56909297	     18.60672280	     19.19114463	     -8.29209376	     -4.85464361	    100.02558001	      1.74577571	      1.15572702
     11.81333333	      7.78775329	      0.50581547	     -3.55472386	      2.23833201	      0.95931770	      1.05955654	     -9.15452997	     -2.10644945	    -11.75962010	     30.54347119	      0.53308414	     16.39752518	     20.31998605	     -8.26484663	     -5.64840533	     97.99817690	      1.71039085	      1.42477454
     11.82000000	      7.70271053	      1.15963037	     -3.57795602	      2.24047104	      0.96375247	      1.06063216	    -11.56118162	     -2.62263652	    -11.77589254	     28.41642435	      0.49596017	     13.78562523	     21.24233894	     -8.24157164	     -6.72966150	     95.64910172	      1.66939175	      1.70892726
     11.82666667	      6.67902868	      1.83414273	     -3.56480355	      2.24290915	      0.96749918	      1.06140253	    -12.78290558	     -3.15269767	    -11.82536018	     26.54667083	      0.46332681	     10.83759550	     23.08008326	     -8.17686392	     -7.85529392	     93.14211723	      1.62563662	      1.92346054
     11.83333333	      7.08992347	      2.41948288	     -3.44964903	      2.24570795	      0.97282324	      1.06221193	    -15.80390505	     -3.59279721	    -12.19113107	     24.11181972	      0.42083064	      7.53236599	     23.02856261	     -8.14586527	     -9.10660399	     90.22844042	      1.57478336	      2.29839982
     11.84000000	      6.67481948	      3.11841663	     -3.45057397	      2.24867052	      0.97747641	      1.06280587	    -17.65407270	     -4.20838471	    -12.46627523	     22.09740603	      0.38567249	      4.08495698	     23.70942441	     -8.01384625	    -10.61276761	     87.12069986	      1.52054306	      2.59369478
     11.84666667	      6.11050518	      3.77780788	     -3.33946878	      2.25169187	      0.98196559	      1.06306146	    -19.21943576	     -4.78151597	    -12.90891958	     20.25419297	      0.35350235	      0.56448714	     24.41618092	     -7.81473715	    -12.10625494	     83.81884257	      1.46291478	      2.87778897
     11.85333333	      5.46583295	      4.43734402	     -3.13798395	      2.25474274	      0.98635290	      1.06299398	    -20.56682974	     -5.34399530	    -13.43006539	     18.60674423	      0.32474895	     -2.91154925	     25.05714213	     -7.49184374	    -13.61401062	     80.29551117	      1.40142104	      3.10523917
